# xmcd
#
# Track frame offsets:
#	150
#	11313
#	27565
#	44772
#	61638
#
# Disc length: 1026 seconds
#
# Revision: 1
# Processed by: cddbd v1.5.2PL0 Copyright (c) Steve Scherf et al.
# Submitted via: audiograbber 1.83.01
#
DISCID=37040005
DTITLE=Grace Vanderwaal - Perfectly Imperfect
DYEAR=2016
DGENRE=Pop-Folk
TTITLE0=I Don't Know My Name
TTITLE1=Clay
TTITLE2=Light The Sky
TTITLE3=Beautiful Thing
TTITLE4=Gossip Girl
EXTD=EP 5-songs 2016
EXTT0=
EXTT1=
EXTT2=
EXTT3=
EXTT4=
PLAYORDER=
